<svg xmlns="http://www.w3.org/2000/svg" width="100%" height="100%" viewBox="0 0 20 20" fit=""
     preserveAspectRatio="xMidYMid meet" focusable="false">
  <path fill="#231F20"
        d="M2.635 11.831a8.254 8.254 0 01-.217-1.857c0-4.494 3.562-8.15 7.941-8.15s7.94 3.656 7.94 8.15-3.562 8.15-7.94 8.15c-2.936 0-5.622-1.658-7.01-4.328l-.045-.087.062-.076c.603-.75 2.272-2.495 4.752-2.495 1.198 0 2.137.445 3.133.916.943.446 1.911.904 3.059.904 1.584 0 2.665-1.312 2.676-1.324l.166-.202L14.52 7.51l-1.022 1.056-.129.132-.104-.153-3.372-4.98-3.967 5.453.566.412 3.255-4.473.125-.172.12.177 3.282 4.843 1.018-1.052.129-.134.104.154 1.676 2.497.072.107-.096.087c-.33.298-1.012.796-1.865.796-.988 0-1.844-.404-2.748-.832-1.031-.488-2.088-.988-3.444-.988-2.448 0-4.161 1.48-4.964 2.363l-.261.286v-.001l-.43.476c1.392 3.199 4.481 5.261 7.896 5.261 4.764 0 8.641-3.97 8.641-8.85s-3.877-8.85-8.641-8.85c-4.765 0-8.642 3.97-8.642 8.85 0 .672.083 1.363.247 2.057l.669-.201z"></path>
</svg>
