<svg version="1.1" id="Layer_1" xmlns="http://www.w3.org/2000/svg" x="0" y="0" viewBox="0 0 60 60" xml:space="preserve"
     fit="" height="100%" width="100%" preserveAspectRatio="xMidYMid meet" focusable="false"><style>.st0 {
  fill: #231f20
}</style>
  <path class="st0"
        d="M30 55.7c-6.6 0-13.2-2.5-18.2-7.5-10-10-10-26.4 0-36.4s26.4-10 36.4 0c7.5 7.5 9.6 18.6 5.5 28.4l-1.7-.7c3.9-9 1.9-19.3-5.1-26.3-9.3-9.3-24.4-9.3-33.8 0-9.3 9.3-9.3 24.4 0 33.8 9.3 9.3 24.4 9.3 33.8 0 .9-.9 1.6-1.8 2.4-2.7H14.8v-1.9h37.9L51.6 44c-1 1.5-2.1 3-3.4 4.2-5 5-11.6 7.5-18.2 7.5z"></path>
  <path class="st0"
        d="M32 52c-5 0-9-4.1-9-9s4-8.9 8.9-8.9 8.9 4 8.9 8.9-3.9 9-8.8 9zm0-16.1c-3.9 0-7.1 3.2-7.1 7.1s3.2 7.1 7.1 7.1 7-3.2 7-7.1-3.1-7.1-7-7.1zM12.3 46.6c-2 0-3.6-1.6-3.6-3.6s1.6-3.6 3.6-3.6 3.6 1.6 3.6 3.6-1.6 3.6-3.6 3.6zm0-5.3c-1 0-1.7.8-1.7 1.7s.8 1.7 1.7 1.7c1 0 1.7-.8 1.7-1.7s-.8-1.7-1.7-1.7z"></path>
  <path class="st0"
        d="M22.8 42.8L20 16.5h2.3c.5 0 .9-.4.9-.9s-.4-.9-.9-.9h-5.7v-1.9h5.7c1.5 0 2.8 1.3 2.8 2.8s-1.3 2.8-2.8 2.8h-.2l2.5 24.3-1.8.1z"></path>
  <path transform="rotate(-5.987 11.484 37.43)" class="st0" d="M10.5 34.4h1.9v6h-1.9z"></path>
  <path class="st0"
        d="M41.3 44.1v-1.9c2.6 0 3.1-1.8 3.1-3.3V26.4h-22L14.2 41l-1.6-.9 8.7-15.6h25V39c0 3.2-1.9 5.1-5 5.1zM9.2 33.5h4v1.9h-4z"></path></svg>
