<svg xmlns="http://www.w3.org/2000/svg" width="100%" height="100%" viewBox="0 0 20 20" fit=""
     preserveAspectRatio="xMidYMid meet" focusable="false">
  <path fill="#231F20"
        d="M10.439 19.363a8.79 8.79 0 006.258-2.592 8.797 8.797 0 002.588-6.259 8.793 8.793 0 00-2.76-6.426l-.473.517c.051.048.1.097.15.147 3.178 3.177 3.178 8.348-.001 11.525a8.09 8.09 0 01-5.763 2.389 8.095 8.095 0 01-5.764-2.389C1.5 13.098 1.5 7.927 4.676 4.75a8.11 8.11 0 015.771-2.389c1.012 0 2.004.186 2.947.553.143.057.371.149.491.206.063.03.124.062.183.095l.17.097-.138.139L6.924 10.7h4.866l-.256.256-3.866 3.869-.256.257v-2.776h-.7v3.824h3.714v-.7H8.055l.256-.256L13.48 10H8.603l.253-.255 6.435-6.501-.297-.245c-.006-.004-.361-.297-.809-.511a11.945 11.945 0 00-.533-.225 8.79 8.79 0 00-3.207-.603A8.801 8.801 0 004.18 4.254C.732 7.705.732 13.32 4.18 16.771a8.8 8.8 0 006.259 2.592z"></path>
</svg>
