<svg xmlns="http://www.w3.org/2000/svg" width="100%" height="100%" viewBox="0 0 20 20" fit=""
     preserveAspectRatio="xMidYMid meet" focusable="false">
  <g fill="#231F20">
    <path
      d="M13.529 9.146a.702.702 0 100 1.402.7.7 0 000-1.402zm-.185 4.301l-.495-.496c-.635.579-1.503.908-2.409.908-.905 0-1.774-.329-2.408-.908l-.497.496a4.232 4.232 0 002.904 1.145 4.23 4.23 0 002.905-1.145z"></path>
    <path
      d="M16.922 4.304c-.001 0-.123-.13-.224-.231-1.672-1.672-3.894-2.593-6.258-2.593s-4.586.921-6.258 2.593c-3.449 3.45-3.449 9.064 0 12.517 1.669 1.668 3.892 2.586 6.258 2.586s4.589-.918 6.258-2.586a8.858 8.858 0 001.463-10.589l-.604.353a8.154 8.154 0 01-1.354 9.74 8.096 8.096 0 01-5.764 2.383 8.095 8.095 0 01-5.763-2.383C1.5 12.916 1.5 7.745 4.677 4.568A8.096 8.096 0 0110.44 2.18c2.107 0 4.105.8 5.628 2.254l.113.108-.113.108a8.134 8.134 0 01-5.645 2.243 8.074 8.074 0 01-4.372-1.27l-.388.585a8.786 8.786 0 004.761 1.386c2.311 0 4.49-.867 6.134-2.442l.59-.605-.226-.243z"></path>
    <circle cx="7.601" cy="9.847" r=".701"></circle>
  </g>
</svg>
