<svg xmlns="http://www.w3.org/2000/svg" width="100%" height="100%" viewBox="0 0 20 20" fit=""
     preserveAspectRatio="xMidYMid meet" focusable="false">
  <g fill="#231F20">
    <path
      d="M10.132 18.729a8.766 8.766 0 003.797-.854c.182-.086.511-.275.512-.275l.174-.102V4.718L3.719 10.752l.339.613 9.634-5.336.223-.123v11.187l-.079.043c-.089.047-.154.082-.207.107a8.093 8.093 0 01-3.497.785c-4.494 0-8.15-3.656-8.15-8.15 0-4.495 3.656-8.151 8.15-8.151 4.495 0 8.15 3.656 8.15 8.151a8.13 8.13 0 01-2.3 5.675c-.041.043-.096.1-.162.166l.486.504c.062-.062.113-.113.146-.148l.042-.045a8.813 8.813 0 002.488-6.152c0-4.88-3.971-8.851-8.85-8.851-4.88 0-8.85 3.971-8.85 8.851s3.97 8.851 8.85 8.851z"></path>
    <path d="M7.292 14.69l2.163-2.871.56.421-2.164 2.871zm3.687-4.93l1.253-1.663.559.421-1.253 1.664z"></path>
  </g>
</svg>
