<svg xmlns="http://www.w3.org/2000/svg" width="100%" height="100%" viewBox="0 0 20 20" fit=""
     preserveAspectRatio="xMidYMid meet" focusable="false">
  <path fill="#231F20"
        d="M10.59 1.806c-4.88 0-8.85 3.97-8.85 8.85 0 1.652.459 3.265 1.327 4.667l.388.594 4.424-5.021-1.762-1.785-.253-.255h3.779l1.908-2.191.263-.302v2.494h2.902l-.423.275-2.479 1.618v4.36l-.259-.271-2.146-2.241-.501.479 3.599 3.757v-5.709l.067-.045 4.475-2.917h-4.542V4.51L9.374 8.112l-.045.051H4.205l2.628 2.66.098.1-.093.105-3.156 3.582-.141.16-.103-.188a8.164 8.164 0 01-1.006-3.926c0-4.498 3.66-8.157 8.158-8.157 4.498 0 8.156 3.659 8.156 8.157s-3.658 8.157-8.156 8.157a8.15 8.15 0 01-5.427-2.066l-.065-.06-.473.506.079.072a8.835 8.835 0 005.885 2.241c4.88 0 8.85-3.971 8.85-8.85.001-4.88-3.968-8.85-8.849-8.85z"></path>
</svg>
