<svg xmlns="http://www.w3.org/2000/svg" width="100%" height="100%" viewBox="0 0 20 20" fit=""
     preserveAspectRatio="xMidYMid meet" focusable="false">
  <path fill="#231F20"
        d="M10.167 18.699a8.852 8.852 0 005.54-1.947l-.447-.539A8.161 8.161 0 0110.167 18c-4.494 0-8.15-3.656-8.15-8.15s3.656-8.15 8.15-8.15c4.495 0 8.149 3.656 8.149 8.15a8.173 8.173 0 01-1.051 4.007l-.025.043-.043.076h-2.16V7l-3.275 2.868v4.109h-1.494V4.998H5.954v6.104H3.62v.699h3.034V5.698h2.913v8.978h2.896v-4.491l.051-.045 1.574-1.379.248-.218v6.133h3.256l.102-.17s.166-.275.246-.42a8.851 8.851 0 001.078-4.236c0-4.88-3.971-8.85-8.851-8.85s-8.85 3.97-8.85 8.85c0 4.88 3.97 8.849 8.85 8.849z"></path>
</svg>
