<svg width="18" height="18" viewBox="0 0 18 18" fill="none" xmlns="http://www.w3.org/2000/svg">
<g clip-path="url(#clip0)">
<path d="M17.1027 15.5358H5.06613C4.57004 15.5358 4.16797 15.1337 4.16797 14.6377C4.16797 14.1416 4.57004 13.7395 5.06613 13.7395H17.1024C17.5984 13.7395 18.0005 14.1416 18.0005 14.6377C18.0005 15.1337 17.5987 15.5358 17.1027 15.5358Z" fill="#74AFFF"/>
<path d="M17.1027 9.89812H5.06613C4.57004 9.89812 4.16797 9.49605 4.16797 8.99997C4.16797 8.50388 4.57004 8.10181 5.06613 8.10181H17.1024C17.5984 8.10181 18.0005 8.50388 18.0005 8.99997C18.0008 9.49605 17.5987 9.89812 17.1027 9.89812Z" fill="#74AFFF"/>
<path d="M17.1027 4.26043H5.06613C4.57004 4.26043 4.16797 3.85835 4.16797 3.36227C4.16797 2.86619 4.57004 2.46411 5.06613 2.46411H17.1024C17.5984 2.46411 18.0005 2.86619 18.0005 3.36227C18.0005 3.85835 17.5987 4.26043 17.1027 4.26043Z" fill="#74AFFF"/>
<path d="M1.20623 4.63804C1.87241 4.63804 2.41245 4.09799 2.41245 3.43181C2.41245 2.76563 1.87241 2.22559 1.20623 2.22559C0.540046 2.22559 0 2.76563 0 3.43181C0 4.09799 0.540046 4.63804 1.20623 4.63804Z" fill="#74AFFF"/>
<path d="M1.20623 10.2064C1.87241 10.2064 2.41245 9.66635 2.41245 9.00017C2.41245 8.33399 1.87241 7.79395 1.20623 7.79395C0.540046 7.79395 0 8.33399 0 9.00017C0 9.66635 0.540046 10.2064 1.20623 10.2064Z" fill="#74AFFF"/>
<path d="M1.20623 15.7745C1.87241 15.7745 2.41245 15.2345 2.41245 14.5683C2.41245 13.9021 1.87241 13.3621 1.20623 13.3621C0.540046 13.3621 0 13.9021 0 14.5683C0 15.2345 0.540046 15.7745 1.20623 15.7745Z" fill="#74AFFF"/>
</g>
<defs>
<clipPath id="clip0">
<rect width="18" height="18" fill="white"/>
</clipPath>
</defs>
</svg>
